<?xml version="1.0" encoding="utf-8" standalone="no"?>
<!DOCTYPE svg PUBLIC "-//W3C//DTD SVG 1.1//EN"
  "http://www.w3.org/Graphics/SVG/1.1/DTD/svg11.dtd">
<svg xmlns:xlink="http://www.w3.org/1999/xlink" width="475.596567pt" height="314.64pt" viewBox="0 0 475.596567 314.64" xmlns="http://www.w3.org/2000/svg" version="1.1">
 <metadata>
  <rdf:RDF xmlns:dc="http://purl.org/dc/elements/1.1/" xmlns:cc="http://creativecommons.org/ns#" xmlns:rdf="http://www.w3.org/1999/02/22-rdf-syntax-ns#">
   <cc:Work>
    <dc:type rdf:resource="http://purl.org/dc/dcmitype/StillImage"/>
    <dc:date>2026-04-27T03:37:02.625025</dc:date>
    <dc:format>image/svg+xml</dc:format>
    <dc:creator>
     <cc:Agent>
      <dc:title>Matplotlib v3.10.9, https://matplotlib.org/</dc:title>
     </cc:Agent>
    </dc:creator>
   </cc:Work>
  </rdf:RDF>
 </metadata>
 <defs>
  <style type="text/css">*{stroke-linejoin: round; stroke-linecap: butt}</style>
 </defs>
 <g id="figure_1">
  <g id="patch_1">
   <path d="M 0 314.64 
L 475.596567 314.64 
L 475.596567 0 
L 0 0 
z
" style="fill: #ffffff"/>
  </g>
  <g id="axes_1">
   <g id="line2d_1">
    <path d="M 168.099871 170.796434 
L 174.296247 170.729309 
L 180.489715 170.527967 
L 186.677368 170.192502 
L 192.856301 169.723071 
L 199.023616 169.119895 
L 205.176416 168.383257 
L 211.311814 167.513502 
L 217.426931 166.511039 
L 223.518896 165.376338 
L 229.58485 164.109932 
L 235.621946 162.712415 
L 241.627351 161.184443 
L 247.598246 159.526734 
L 253.531828 157.740065 
L 259.425313 155.825275 
L 265.275935 153.783262 
L 271.080946 151.614986 
L 276.837624 149.321463 
L 282.543266 146.90377 
L 288.195194 144.363042 
" clip-path="url(#pf5f30e52e3)" style="fill: none; stroke-dasharray: 2.96,1.28; stroke-dashoffset: 0; stroke: #888888; stroke-width: 0.8"/>
   </g>
   <g id="patch_2">
    <path d="M 279.103998 201.92921 
L 277.654165 135.018816 
L 84.357472 139.207224 
L 85.807305 206.117618 
z
" clip-path="url(#pf5f30e52e3)" style="fill: #2a5caa; opacity: 0.08; stroke: #2a5caa; stroke-width: 0.4; stroke-linejoin: miter"/>
   </g>
   <g id="patch_3">
    <path d="M 285.94876 199.450074 
L 283.049774 132.586791 
L 89.889177 140.961641 
L 92.788163 207.824924 
z
" clip-path="url(#pf5f30e52e3)" style="fill: #2a5caa; opacity: 0.08; stroke: #2a5caa; stroke-width: 0.4; stroke-linejoin: miter"/>
   </g>
   <g id="patch_4">
    <path d="M 292.73821 196.823242 
L 288.391431 130.03845 
L 95.45759 142.595812 
L 99.804369 209.380603 
z
" clip-path="url(#pf5f30e52e3)" style="fill: #2a5caa; opacity: 0.08; stroke: #2a5caa; stroke-width: 0.4; stroke-linejoin: miter"/>
   </g>
   <g id="patch_5">
    <path d="M 306.138454 191.131483 
L 298.902889 124.597661 
L 106.694071 145.500404 
L 113.929636 212.034225 
z
" clip-path="url(#pf5f30e52e3)" style="fill: #2a5caa; opacity: 0.08; stroke: #2a5caa; stroke-width: 0.4; stroke-linejoin: miter"/>
   </g>
   <g id="patch_6">
    <path d="M 312.742958 188.069229 
L 304.067756 121.707767 
L 112.356865 146.769461 
L 121.032067 213.130924 
z
" clip-path="url(#pf5f30e52e3)" style="fill: #2a5caa; opacity: 0.08; stroke: #2a5caa; stroke-width: 0.4; stroke-linejoin: miter"/>
   </g>
   <g id="patch_7">
    <path d="M 319.279574 184.864619 
L 309.168807 118.706662 
L 118.045821 147.915547 
L 128.156589 214.073504 
z
" clip-path="url(#pf5f30e52e3)" style="fill: #2a5caa; opacity: 0.08; stroke: #2a5caa; stroke-width: 0.4; stroke-linejoin: miter"/>
   </g>
   <g id="patch_8">
    <path d="M 332.136904 178.034413 
L 319.169913 112.376512 
L 129.491532 149.836709 
L 142.458524 215.49461 
z
" clip-path="url(#pf5f30e52e3)" style="fill: #2a5caa; opacity: 0.08; stroke: #2a5caa; stroke-width: 0.4; stroke-linejoin: miter"/>
   </g>
   <g id="patch_9">
    <path d="M 338.451583 174.412022 
L 324.065274 109.050436 
L 135.242914 150.610884 
L 149.629223 215.97247 
z
" clip-path="url(#pf5f30e52e3)" style="fill: #2a5caa; opacity: 0.08; stroke: #2a5caa; stroke-width: 0.4; stroke-linejoin: miter"/>
   </g>
   <g id="patch_10">
    <path d="M 344.686307 170.653686 
L 328.887433 105.619092 
L 141.009718 151.260283 
L 156.808591 216.294877 
z
" clip-path="url(#pf5f30e52e3)" style="fill: #2a5caa; opacity: 0.08; stroke: #2a5caa; stroke-width: 0.4; stroke-linejoin: miter"/>
   </g>
   <g id="patch_11">
    <path d="M 356.904226 162.736294 
L 338.303128 98.447089 
L 152.578756 152.183596 
L 171.179855 216.472802 
z
" clip-path="url(#pf5f30e52e3)" style="fill: #2a5caa; opacity: 0.08; stroke: #2a5caa; stroke-width: 0.4; stroke-linejoin: miter"/>
   </g>
   <g id="patch_12">
    <path d="M 362.881687 158.580955 
L 342.892243 94.709796 
L 158.375561 152.457076 
L 178.365005 216.328236 
z
" clip-path="url(#pf5f30e52e3)" style="fill: #2a5caa; opacity: 0.08; stroke: #2a5caa; stroke-width: 0.4; stroke-linejoin: miter"/>
   </g>
   <g id="patch_13">
    <path d="M 368.767726 154.297099 
L 347.39932 90.873964 
L 164.17693 152.604915 
L 185.545336 216.02805 
z
" clip-path="url(#pf5f30e52e3)" style="fill: #2a5caa; opacity: 0.08; stroke: #2a5caa; stroke-width: 0.4; stroke-linejoin: miter"/>
   </g>
   <g id="patch_14">
    <path d="M 380.254537 145.351943 
L 356.158936 82.913935 
L 175.782469 152.52345 
L 199.87807 214.961458 
z
" clip-path="url(#pf5f30e52e3)" style="fill: #2a5caa; opacity: 0.08; stroke: #2a5caa; stroke-width: 0.4; stroke-linejoin: miter"/>
   </g>
   <g id="patch_15">
    <path d="M 385.849917 140.694841 
L 360.407363 78.793473 
L 181.581191 152.294184 
L 207.023744 214.195551 
z
" clip-path="url(#pf5f30e52e3)" style="fill: #2a5caa; opacity: 0.08; stroke: #2a5caa; stroke-width: 0.4; stroke-linejoin: miter"/>
   </g>
   <g id="patch_16">
    <path d="M 391.343096 135.917618 
L 364.565531 74.581944 
L 187.373585 151.939353 
L 214.15115 213.275026 
z
" clip-path="url(#pf5f30e52e3)" style="fill: #2a5caa; opacity: 0.08; stroke: #2a5caa; stroke-width: 0.4; stroke-linejoin: miter"/>
   </g>
   <g id="patch_17">
    <path d="M 272.207137 204.259484 
L 272.207137 137.333384 
L 78.865071 137.333384 
L 78.865071 204.259484 
L 272.207137 204.259484 
z
" clip-path="url(#pf5f30e52e3)" style="fill: none; stroke: #d4600a; stroke-width: 1.6; stroke-linejoin: miter"/>
   </g>
   <g id="patch_18">
    <path d="M 299.469161 194.049944 
L 293.67663 127.374991 
L 101.060098 144.108969 
L 106.852629 210.783923 
L 299.469161 194.049944 
z
" clip-path="url(#pf5f30e52e3)" style="fill: none; stroke: #d4600a; stroke-width: 1.6; stroke-linejoin: miter"/>
   </g>
   <g id="patch_19">
    <path d="M 325.745235 181.519157 
L 314.203646 115.595757 
L 123.758271 148.938123 
L 135.299859 214.861522 
L 325.745235 181.519157 
z
" clip-path="url(#pf5f30e52e3)" style="fill: none; stroke: #d4600a; stroke-width: 1.6; stroke-linejoin: miter"/>
   </g>
   <g id="patch_20">
    <path d="M 350.838151 166.761168 
L 333.634127 102.08409 
L 146.789236 151.784602 
L 163.993259 216.46168 
L 350.838151 166.761168 
z
" clip-path="url(#pf5f30e52e3)" style="fill: none; stroke: #d4600a; stroke-width: 1.6; stroke-linejoin: miter"/>
   </g>
   <g id="patch_21">
    <path d="M 374.559582 149.886739 
L 351.822243 86.941396 
L 169.980141 152.627043 
L 192.71748 215.572386 
L 374.559582 149.886739 
z
" clip-path="url(#pf5f30e52e3)" style="fill: none; stroke: #d4600a; stroke-width: 1.6; stroke-linejoin: miter"/>
   </g>
   <g id="patch_22">
    <path d="M 396.731496 131.022516 
L 368.631488 70.281324 
L 193.156934 151.459123 
L 221.256942 212.200315 
L 396.731496 131.022516 
z
" clip-path="url(#pf5f30e52e3)" style="fill: none; stroke: #d4600a; stroke-width: 1.6; stroke-linejoin: miter"/>
   </g>
   <g id="patch_23">
    <path d="M 171.214414 230.151263 
Q 180.478109 229.749618 189.741803 229.347973 
" style="fill: none; stroke: #555555; stroke-linecap: round"/>
    <path d="M 175.70558 232.158607 
L 171.214414 230.151263 
L 175.514988 227.762737 
" style="fill: none; stroke: #555555; stroke-linecap: round"/>
    <path d="M 185.250638 227.340629 
L 189.741803 229.347973 
L 185.441229 231.736499 
" style="fill: none; stroke: #555555; stroke-linecap: round"/>
   </g>
   <g id="text_1">
    <!-- 0.67 m between checks -->
    <g style="fill: #555555" transform="translate(135.589883 255.123446) scale(0.09 -0.09)">
     <defs>
      <path id="NewCM10-Regular-30" d="M 781 2074 
C 781 3104 794 4122 1600 4122 
C 2406 4122 2413 3104 2413 2074 
C 2413 1043 2406 6 1600 6 
C 794 6 781 1043 781 2074 
z
M 250 2074 
C 250 1120 448 -141 1600 -141 
C 2752 -141 2950 1120 2950 2074 
C 2950 3027 2752 4262 1600 4262 
C 448 4262 250 3027 250 2074 
z
" transform="scale(0.015625)"/>
      <path id="NewCM10-Regular-2e" d="M 1229 339 
C 1229 525 1075 678 890 678 
C 704 678 550 525 550 339 
C 550 154 704 0 890 0 
C 1075 0 1229 154 1229 339 
z
" transform="scale(0.015625)"/>
      <path id="NewCM10-Regular-36" d="M 1952 4096 
C 2227 4096 2400 4019 2528 3846 
C 2502 3853 2477 3853 2477 3853 
C 2400 3853 2176 3821 2176 3558 
C 2176 3373 2304 3264 2477 3264 
C 2490 3264 2765 3270 2765 3565 
C 2765 4026 2406 4262 1939 4262 
C 1037 4262 262 3296 262 2022 
C 262 13 1274 -141 1594 -141 
C 2413 -141 2925 538 2925 1306 
C 2925 2099 2394 2733 1638 2733 
C 1286 2733 1024 2522 845 2099 
L 845 2150 
C 845 3923 1638 4096 1952 4096 
z
M 858 1414 
C 858 1978 1082 2586 1638 2586 
C 2349 2586 2349 1747 2349 1235 
C 2349 890 2349 38 1600 38 
C 1114 38 858 550 858 1414 
z
" transform="scale(0.015625)"/>
      <path id="NewCM10-Regular-37" d="M 570 4326 
L 730 4326 
C 755 4122 954 4122 2246 4122 
L 3104 4122 
C 3104 3987 3098 3968 3046 3898 
L 2195 2701 
C 1805 2150 1715 1376 1715 384 
C 1715 58 1709 -141 1421 -141 
C 1229 -141 1126 -32 1126 211 
C 1126 883 1344 1811 1952 2675 
L 2618 3622 
L 1875 3622 
C 806 3622 704 3622 666 3571 
C 563 3424 525 3014 525 3014 
L 525 3008 
L 358 3008 
L 358 3014 
C 358 3021 570 4326 570 4326 
z
" transform="scale(0.015625)"/>
      <path id="NewCM10-Regular-20" transform="scale(0.015625)"/>
      <path id="NewCM10-Regular-6d" d="M 2483 1965 
L 2483 474 
C 2483 230 2413 198 2086 198 
L 1984 198 
L 1984 0 
C 2067 0 2560 19 2701 19 
C 2886 19 3270 0 3424 0 
L 3424 198 
L 3315 198 
C 2995 198 2925 230 2925 467 
L 2925 1670 
C 2925 2291 3347 2688 3789 2688 
C 4096 2688 4262 2477 4262 2003 
L 4262 480 
C 4262 224 4192 198 3866 198 
L 3763 198 
L 3763 0 
C 3846 0 4294 19 4410 19 
C 4691 19 5056 0 5203 0 
L 5203 198 
C 4877 198 4704 198 4704 397 
L 4704 1946 
C 4704 2605 4365 2829 3840 2829 
C 3392 2829 3091 2579 2906 2208 
C 2842 2624 2534 2829 2067 2829 
C 1587 2829 1293 2560 1107 2163 
L 1107 2829 
L 205 2758 
L 205 2560 
C 666 2560 704 2502 704 2214 
L 704 442 
C 704 218 602 198 307 198 
L 205 198 
L 205 0 
C 358 0 736 19 858 19 
C 1133 19 1491 0 1645 0 
L 1645 198 
C 1222 198 1146 198 1146 486 
L 1146 1677 
C 1146 2285 1562 2688 2010 2688 
C 2330 2688 2483 2483 2483 1965 
z
" transform="scale(0.015625)"/>
      <path id="NewCM10-Regular-62" d="M 1101 2413 
L 1101 4442 
L 1094 4442 
C 1050 4442 224 4371 179 4371 
L 179 4173 
L 262 4173 
C 557 4160 640 4122 666 3968 
C 672 3942 672 3840 678 1984 
L 672 0 
L 838 0 
L 1069 397 
C 1350 -13 1677 -70 1914 -70 
C 2643 -70 3334 538 3334 1370 
C 3334 2202 2701 2829 1984 2829 
C 1741 2829 1408 2771 1101 2413 
z
M 1894 70 
C 1734 70 1466 109 1222 442 
C 1171 512 1120 582 1120 691 
L 1120 2125 
C 1120 2234 1434 2688 1946 2688 
C 2246 2688 2803 2432 2803 1440 
C 2803 1158 2790 678 2528 384 
C 2381 218 2176 70 1894 70 
z
" transform="scale(0.015625)"/>
      <path id="NewCM10-Regular-65" d="M 2483 736 
C 2278 147 1779 90 1626 90 
C 1402 90 1248 173 1107 288 
C 838 512 710 864 710 1382 
L 710 1478 
L 2541 1478 
C 2643 1478 2656 1498 2656 1606 
C 2656 2342 2240 2867 1510 2867 
C 730 2867 179 2182 179 1408 
C 179 525 864 -70 1600 -70 
C 2355 -70 2656 627 2656 762 
C 2656 800 2637 838 2579 838 
C 2534 838 2509 813 2483 736 
z
M 1504 2726 
C 2150 2726 2234 1894 2234 1638 
L 2234 1619 
L 717 1619 
L 717 1664 
C 768 2509 1248 2726 1504 2726 
z
" transform="scale(0.015625)"/>
      <path id="NewCM10-Regular-74" d="M 1965 781 
L 1965 1158 
L 2125 1158 
L 2125 781 
C 2125 307 1920 -70 1402 -70 
C 826 -70 666 403 666 819 
L 666 2560 
L 122 2560 
L 122 2701 
C 685 2720 941 3309 947 3936 
L 1107 3936 
L 1107 2765 
L 2022 2765 
L 2022 2560 
L 1107 2560 
L 1107 749 
C 1107 416 1222 90 1517 90 
C 1837 90 1965 454 1965 781 
z
" transform="scale(0.015625)"/>
      <path id="NewCM10-Regular-77" d="M 2982 -19 
L 2304 1862 
L 1632 -13 
C 1613 -58 1574 -70 1530 -70 
C 1504 -70 1440 -64 1421 0 
L 570 2381 
C 506 2547 371 2560 115 2560 
L 115 2758 
C 192 2758 582 2739 678 2739 
C 915 2739 1261 2758 1408 2758 
L 1408 2560 
C 1210 2560 1037 2528 1037 2355 
C 1037 2342 1664 570 1670 570 
L 2221 2112 
L 2106 2406 
C 2048 2534 1933 2560 1670 2560 
L 1670 2758 
C 1779 2752 2086 2739 2246 2739 
C 2394 2739 2726 2758 2906 2758 
L 2906 2560 
C 2694 2560 2528 2528 2528 2387 
C 2528 2362 2534 2336 2547 2304 
L 3194 480 
L 3789 2157 
C 3795 2189 3802 2221 3802 2259 
C 3802 2426 3654 2560 3437 2560 
L 3437 2758 
C 3507 2758 3936 2739 4051 2739 
C 4250 2739 4403 2752 4499 2758 
L 4499 2560 
C 4224 2560 4045 2374 3974 2182 
L 3187 -13 
C 3168 -64 3104 -70 3091 -70 
C 3059 -70 2995 -64 2982 -19 
z
" transform="scale(0.015625)"/>
      <path id="NewCM10-Regular-6e" d="M 2925 1933 
C 2925 2579 2624 2829 2035 2829 
C 1562 2829 1261 2509 1107 2157 
L 1107 2829 
L 205 2758 
L 205 2560 
L 288 2560 
C 698 2560 704 2445 704 2182 
L 704 474 
C 704 205 634 198 205 198 
L 205 0 
C 352 0 768 19 922 19 
C 1037 19 1562 0 1645 0 
L 1645 198 
C 1222 198 1146 211 1146 461 
L 1146 1651 
C 1146 2298 1587 2675 2010 2675 
C 2304 2675 2483 2477 2483 2016 
L 2483 461 
C 2483 205 2406 198 1984 198 
L 1984 0 
C 2131 6 2483 19 2765 19 
C 2880 19 3341 6 3424 0 
L 3424 198 
L 3309 198 
C 2963 198 2925 269 2925 429 
L 2925 1933 
z
" transform="scale(0.015625)"/>
      <path id="NewCM10-Regular-63" d="M 1613 -70 
C 2419 -70 2656 659 2656 768 
C 2656 806 2624 826 2566 826 
C 2515 826 2502 813 2490 768 
C 2368 384 2118 90 1651 90 
C 1274 90 749 422 749 1395 
C 749 1914 864 2221 1094 2483 
C 1235 2624 1382 2701 1600 2701 
C 1888 2701 2157 2611 2298 2470 
C 2048 2458 1997 2278 1997 2182 
C 1997 2010 2106 1882 2298 1882 
C 2464 1882 2586 1997 2586 2189 
C 2586 2618 2080 2867 1606 2867 
C 781 2867 211 2138 211 1382 
C 211 685 742 -70 1613 -70 
z
" transform="scale(0.015625)"/>
      <path id="NewCM10-Regular-68" d="M 2054 2829 
C 2637 2829 2925 2541 2925 1946 
L 2925 416 
C 2925 205 3053 198 3424 198 
L 3424 0 
C 3270 0 2906 19 2630 19 
C 2515 19 2067 0 1984 0 
L 1984 198 
C 1997 198 2003 192 2016 192 
C 2387 192 2483 198 2483 467 
L 2483 1952 
C 2483 2464 2330 2675 2010 2675 
C 1670 2675 1146 2374 1146 1651 
L 1146 493 
C 1146 211 1190 198 1645 198 
L 1645 0 
C 1562 0 1075 19 960 19 
C 678 19 352 0 205 0 
L 205 198 
C 678 198 704 224 704 499 
L 704 3840 
C 704 4128 634 4173 205 4173 
L 205 4371 
L 1126 4442 
L 1126 2214 
L 1133 2214 
C 1414 2803 1894 2829 2054 2829 
z
" transform="scale(0.015625)"/>
      <path id="NewCM10-Regular-6b" d="M 3270 198 
C 3008 198 2880 230 2688 486 
C 2688 486 1850 1664 1792 1754 
C 1869 1837 2291 2195 2291 2195 
C 2573 2432 2886 2560 3123 2560 
L 3123 2758 
C 3046 2746 2874 2739 2675 2739 
C 2477 2739 2170 2746 1958 2758 
L 1958 2560 
L 1984 2560 
C 2080 2547 2138 2483 2138 2394 
C 2138 2310 2106 2253 2035 2182 
C 2010 2163 1792 1971 1549 1766 
L 1101 1370 
L 1101 4442 
L 179 4371 
L 179 4173 
C 538 4173 678 4160 678 3859 
L 678 454 
C 678 218 608 198 179 198 
L 179 0 
C 339 0 627 19 883 19 
C 1139 19 1421 0 1581 0 
L 1581 198 
C 1126 198 1082 211 1082 493 
L 1082 1146 
L 1491 1498 
L 2125 608 
C 2176 525 2253 403 2253 333 
C 2253 256 2182 198 2022 198 
L 2022 0 
C 2182 6 2528 19 2771 19 
C 2874 19 3213 6 3270 0 
L 3270 198 
z
" transform="scale(0.015625)"/>
      <path id="NewCM10-Regular-73" d="M 2144 2765 
L 2144 2029 
C 2144 1939 2131 1914 2067 1914 
C 1990 1914 1978 1952 1978 2022 
C 1978 2118 1946 2746 1248 2746 
C 723 2746 518 2515 518 2266 
C 518 2003 736 1882 928 1824 
C 1222 1728 1382 1741 1670 1645 
C 2074 1504 2304 1184 2304 826 
C 2304 397 2061 -70 1267 -70 
C 960 -70 742 32 570 205 
C 365 -32 326 -77 262 -77 
C 230 -77 211 -51 211 64 
L 211 954 
C 211 1062 230 1088 294 1088 
C 346 1088 358 1069 378 1005 
C 429 774 499 570 582 435 
C 794 109 1088 70 1274 70 
C 1702 70 1997 269 1997 653 
C 1997 947 1786 1107 1510 1197 
C 1331 1248 883 1293 614 1446 
C 403 1568 211 1779 211 2074 
C 211 2413 422 2867 1242 2867 
C 1517 2867 1690 2790 1837 2688 
C 2003 2848 2022 2867 2074 2867 
C 2112 2867 2144 2861 2144 2765 
z
" transform="scale(0.015625)"/>
     </defs>
     <use xlink:href="#NewCM10-Regular-30"/>
     <use xlink:href="#NewCM10-Regular-2e" transform="translate(49.999985 0)"/>
     <use xlink:href="#NewCM10-Regular-36" transform="translate(77.799973 0)"/>
     <use xlink:href="#NewCM10-Regular-37" transform="translate(127.799957 0)"/>
     <use xlink:href="#NewCM10-Regular-20" transform="translate(177.799942 0)"/>
     <use xlink:href="#NewCM10-Regular-6d" transform="translate(211.09993 0)"/>
     <use xlink:href="#NewCM10-Regular-20" transform="translate(294.399918 0)"/>
     <use xlink:href="#NewCM10-Regular-62" transform="translate(327.699905 0)"/>
     <use xlink:href="#NewCM10-Regular-65" transform="translate(383.299896 0)"/>
     <use xlink:href="#NewCM10-Regular-74" transform="translate(427.69989 0)"/>
     <use xlink:href="#NewCM10-Regular-77" transform="translate(466.599884 0)"/>
     <use xlink:href="#NewCM10-Regular-65" transform="translate(538.799866 0)"/>
     <use xlink:href="#NewCM10-Regular-65" transform="translate(583.19986 0)"/>
     <use xlink:href="#NewCM10-Regular-6e" transform="translate(627.599854 0)"/>
     <use xlink:href="#NewCM10-Regular-20" transform="translate(683.199844 0)"/>
     <use xlink:href="#NewCM10-Regular-63" transform="translate(716.499832 0)"/>
     <use xlink:href="#NewCM10-Regular-68" transform="translate(760.899826 0)"/>
     <use xlink:href="#NewCM10-Regular-65" transform="translate(816.499817 0)"/>
     <use xlink:href="#NewCM10-Regular-63" transform="translate(860.899811 0)"/>
     <use xlink:href="#NewCM10-Regular-6b" transform="translate(905.299805 0)"/>
     <use xlink:href="#NewCM10-Regular-73" transform="translate(958.099792 0)"/>
    </g>
   </g>
   <g id="PathCollection_1">
    <defs>
     <path id="m6aa761b292" d="M 0 2.12132 
C 0.562581 2.12132 1.102195 1.897805 1.5 1.5 
C 1.897805 1.102195 2.12132 0.562581 2.12132 0 
C 2.12132 -0.562581 1.897805 -1.102195 1.5 -1.5 
C 1.102195 -1.897805 0.562581 -2.12132 0 -2.12132 
C -0.562581 -2.12132 -1.102195 -1.897805 -1.5 -1.5 
C -1.897805 -1.102195 -2.12132 -0.562581 -2.12132 0 
C -2.12132 0.562581 -1.897805 1.102195 -1.5 1.5 
C -1.102195 1.897805 -0.562581 2.12132 0 2.12132 
z
" style="stroke: #d4600a"/>
    </defs>
    <g clip-path="url(#pf5f30e52e3)">
     <use xlink:href="#m6aa761b292" x="168.099871" y="170.796434" style="fill: #d4600a; stroke: #d4600a"/>
     <use xlink:href="#m6aa761b292" x="192.856301" y="169.723071" style="fill: #d4600a; stroke: #d4600a"/>
     <use xlink:href="#m6aa761b292" x="217.426931" y="166.511039" style="fill: #d4600a; stroke: #d4600a"/>
     <use xlink:href="#m6aa761b292" x="241.627351" y="161.184443" style="fill: #d4600a; stroke: #d4600a"/>
     <use xlink:href="#m6aa761b292" x="265.275935" y="153.783262" style="fill: #d4600a; stroke: #d4600a"/>
     <use xlink:href="#m6aa761b292" x="288.195194" y="144.363042" style="fill: #d4600a; stroke: #d4600a"/>
    </g>
   </g>
   <g id="legend_1">
    <g id="patch_24">
     <path d="M 14.2 44.140625 
L 171.13125 44.140625 
Q 173.13125 44.140625 173.13125 42.140625 
L 173.13125 14.2 
Q 173.13125 12.2 171.13125 12.2 
L 14.2 12.2 
Q 12.2 12.2 12.2 14.2 
L 12.2 42.140625 
Q 12.2 44.140625 14.2 44.140625 
z
" style="fill: #ffffff; opacity: 0.9; stroke: #cccccc; stroke-linejoin: miter"/>
    </g>
    <g id="patch_25">
     <path d="M 16.2 23.2 
L 36.2 23.2 
L 36.2 16.2 
L 16.2 16.2 
z
" style="fill: #2a5caa; opacity: 0.25; stroke: #2a5caa; stroke-width: 0.4; stroke-linejoin: miter"/>
    </g>
    <g id="text_2">
     <!-- Unchecked states -->
     <g transform="translate(44.2 23.2) scale(0.1 -0.1)">
      <defs>
       <path id="NewCM08-Regular-55" d="M 4179 3661 
C 4179 3866 4179 4134 4877 4134 
L 4877 4371 
L 4058 4352 
L 3232 4371 
L 3232 4134 
C 3923 4134 3930 3853 3930 3686 
L 3930 1485 
C 3930 595 3277 96 2643 96 
C 2336 96 1549 250 1549 1440 
L 1549 3859 
C 1549 4077 1562 4134 2061 4134 
L 2246 4134 
L 2246 4371 
C 1984 4352 1485 4352 1229 4352 
C 973 4352 461 4352 205 4371 
L 205 4134 
L 384 4134 
C 883 4134 902 4077 902 3859 
L 902 1466 
C 902 557 1696 -141 2630 -141 
C 3424 -141 4045 461 4160 1190 
C 4179 1318 4179 1376 4179 1632 
L 4179 3661 
z
" transform="scale(0.015625)"/>
       <path id="NewCM08-Regular-6e" d="M 2867 19 
L 3648 0 
L 3648 237 
C 3539 237 3347 224 3238 256 
C 3155 275 3123 320 3123 403 
L 3123 1613 
C 3123 2150 3117 2355 2906 2586 
C 2803 2701 2573 2829 2176 2829 
C 1702 2829 1389 2586 1197 2227 
L 1197 2829 
L 198 2758 
L 198 2528 
C 685 2528 723 2483 723 2189 
L 723 499 
C 723 237 672 237 198 237 
L 198 0 
L 986 19 
L 1766 0 
L 1766 237 
C 1286 237 1235 237 1235 499 
L 1235 1658 
C 1235 2310 1709 2650 2131 2650 
C 2534 2650 2611 2330 2611 1971 
L 2611 499 
C 2611 237 2560 237 2080 237 
L 2080 0 
L 2867 19 
z
" transform="scale(0.015625)"/>
       <path id="NewCM08-Regular-63" d="M 1690 -70 
C 2611 -70 2835 698 2835 768 
C 2835 851 2752 851 2726 851 
C 2656 851 2637 819 2618 774 
C 2426 198 1997 128 1747 128 
C 1402 128 813 390 813 1395 
C 813 2419 1363 2669 1709 2669 
C 1766 2669 2157 2662 2387 2470 
C 2138 2432 2099 2246 2099 2163 
C 2099 1990 2227 1856 2426 1856 
C 2618 1856 2758 1971 2758 2170 
C 2758 2618 2227 2867 1702 2867 
C 845 2867 211 2176 211 1382 
C 211 563 890 -70 1690 -70 
z
" transform="scale(0.015625)"/>
       <path id="NewCM08-Regular-68" d="M 1216 2285 
L 1216 4442 
L 198 4371 
L 198 4134 
C 685 4134 723 4096 723 3802 
L 723 499 
C 723 237 672 237 198 237 
L 198 0 
L 986 19 
L 1766 0 
L 1766 237 
C 1286 237 1235 237 1235 499 
L 1235 1670 
C 1235 2317 1709 2662 2131 2662 
C 2534 2662 2611 2342 2611 1978 
L 2611 499 
C 2611 237 2560 237 2080 237 
L 2080 0 
L 2867 19 
L 3648 0 
L 3648 237 
C 3539 237 3347 230 3238 256 
C 3155 282 3123 320 3123 403 
L 3123 1619 
C 3123 2163 3117 2368 2906 2598 
C 2803 2714 2573 2842 2176 2842 
C 1645 2842 1344 2515 1216 2285 
z
" transform="scale(0.015625)"/>
       <path id="NewCM08-Regular-65" d="M 1683 -70 
C 2522 -70 2835 640 2835 768 
C 2835 851 2765 864 2726 864 
C 2650 864 2637 813 2618 762 
C 2502 442 2298 282 2112 205 
C 1990 154 1856 128 1722 128 
C 1395 128 1126 307 973 538 
C 781 832 774 1229 774 1459 
L 2643 1459 
C 2803 1459 2835 1459 2835 1613 
C 2835 2240 2464 2867 1600 2867 
C 800 2867 166 2208 166 1408 
C 166 550 890 -70 1683 -70 
z
M 1600 2688 
C 2259 2688 2342 1901 2349 1632 
L 781 1632 
C 826 2541 1382 2688 1600 2688 
z
" transform="scale(0.015625)"/>
       <path id="NewCM08-Regular-6b" d="M 2880 19 
C 3072 26 3270 13 3488 0 
L 3488 237 
C 3373 237 3251 230 3149 275 
C 3053 314 2950 397 2822 563 
L 1965 1696 
C 1965 1702 1958 1709 1952 1715 
L 1939 1728 
C 1933 1741 1926 1754 1926 1760 
C 1926 1786 2400 2150 2470 2202 
C 2893 2522 3168 2534 3328 2541 
L 3328 2778 
C 3110 2752 3027 2752 2835 2752 
C 2592 2752 2170 2765 2054 2771 
L 2054 2541 
C 2195 2534 2253 2470 2253 2400 
C 2253 2291 2189 2227 2112 2163 
L 1184 1421 
L 1184 4442 
L 166 4371 
L 166 4134 
C 659 4134 698 4096 698 3802 
L 698 499 
C 698 237 646 237 166 237 
L 166 0 
L 928 19 
L 1696 0 
L 1696 237 
C 1216 237 1165 237 1165 499 
L 1165 1146 
L 1574 1478 
C 1830 1146 2029 896 2163 710 
C 2304 525 2368 410 2368 365 
C 2368 262 2272 237 2125 237 
L 2125 0 
L 2880 19 
z
" transform="scale(0.015625)"/>
       <path id="NewCM08-Regular-64" d="M 2560 -70 
L 3597 0 
L 3597 237 
C 3104 237 3066 275 3066 570 
L 3066 4442 
L 2048 4371 
L 2048 4134 
C 2541 4134 2579 4096 2579 3802 
L 2579 2483 
C 2381 2694 2093 2842 1741 2842 
C 934 2842 211 2214 211 1382 
C 211 570 883 -70 1670 -70 
C 2080 -70 2381 122 2560 314 
L 2560 -70 
z
M 2560 2067 
L 2560 768 
C 2560 659 2560 646 2483 544 
C 2285 243 1984 109 1702 109 
C 1408 109 1171 269 1005 506 
C 832 762 813 1114 813 1376 
C 813 1613 826 1990 1024 2266 
C 1158 2464 1414 2662 1773 2662 
C 2003 2662 2285 2573 2490 2291 
C 2560 2189 2560 2182 2560 2067 
z
" transform="scale(0.015625)"/>
       <path id="NewCM08-Regular-20" transform="scale(0.015625)"/>
       <path id="NewCM08-Regular-73" d="M 1350 -70 
C 2144 -70 2464 358 2464 826 
C 2464 1171 2253 1363 2170 1440 
C 1946 1645 1670 1696 1389 1747 
C 998 1818 570 1901 570 2246 
C 570 2458 736 2707 1312 2707 
C 1677 2707 1862 2573 1965 2413 
C 2048 2272 2067 2118 2080 1965 
C 2086 1888 2182 1888 2182 1888 
C 2285 1888 2291 1920 2291 2061 
L 2291 2694 
C 2291 2822 2285 2867 2195 2867 
C 2157 2867 2138 2861 2048 2784 
C 2029 2765 1978 2720 1946 2694 
C 1690 2867 1414 2867 1312 2867 
C 474 2867 205 2438 205 2074 
C 205 1843 314 1664 506 1517 
C 723 1350 922 1312 1408 1222 
C 1562 1197 2099 1101 2099 666 
C 2099 352 1869 109 1350 109 
C 794 109 557 454 429 986 
C 410 1069 397 1114 314 1114 
C 211 1114 205 1062 205 934 
L 205 102 
C 205 -26 211 -70 301 -70 
C 365 -70 461 32 493 77 
C 525 115 570 154 602 192 
C 902 -64 1210 -70 1350 -70 
z
" transform="scale(0.015625)"/>
       <path id="NewCM08-Regular-74" d="M 1581 -70 
C 2080 -70 2272 397 2272 806 
L 2272 1184 
L 2061 1184 
L 2061 819 
C 2061 352 1862 128 1626 128 
C 1190 128 1197 685 1197 794 
L 1197 2534 
L 2163 2534 
L 2163 2771 
L 1197 2771 
L 1197 3936 
L 986 3936 
C 979 3398 774 2739 109 2714 
L 109 2534 
L 685 2534 
L 685 806 
C 685 6 1331 -70 1581 -70 
z
" transform="scale(0.015625)"/>
       <path id="NewCM08-Regular-61" d="M 2720 -38 
C 2867 -38 3296 51 3296 582 
L 3296 954 
L 3085 954 
L 3085 582 
C 3085 224 2925 192 2861 192 
C 2656 192 2630 461 2630 493 
L 2630 1754 
C 2630 2048 2624 2285 2381 2515 
C 2112 2765 1766 2867 1440 2867 
C 877 2867 390 2566 390 2131 
C 390 1933 538 1818 723 1818 
C 928 1818 1056 1952 1056 2131 
C 1056 2202 1024 2413 736 2438 
C 915 2630 1222 2688 1427 2688 
C 1747 2688 2125 2451 2125 1901 
L 2125 1683 
C 1696 1664 1280 1626 890 1459 
C 371 1235 198 902 198 621 
C 198 90 877 -70 1306 -70 
C 1728 -70 2035 154 2182 429 
C 2234 192 2413 -38 2720 -38 
z
M 2125 1517 
L 2125 902 
C 2125 314 1645 109 1350 109 
C 1024 109 762 320 762 627 
C 762 960 1030 1472 2125 1517 
z
" transform="scale(0.015625)"/>
      </defs>
      <use xlink:href="#NewCM08-Regular-55"/>
      <use xlink:href="#NewCM08-Regular-6e" transform="translate(79.599991 0)"/>
      <use xlink:href="#NewCM08-Regular-63" transform="translate(138.599976 0)"/>
      <use xlink:href="#NewCM08-Regular-68" transform="translate(185.799973 0)"/>
      <use xlink:href="#NewCM08-Regular-65" transform="translate(244.799957 0)"/>
      <use xlink:href="#NewCM08-Regular-63" transform="translate(291.999954 0)"/>
      <use xlink:href="#NewCM08-Regular-6b" transform="translate(339.199951 0)"/>
      <use xlink:href="#NewCM08-Regular-65" transform="translate(395.299942 0)"/>
      <use xlink:href="#NewCM08-Regular-64" transform="translate(442.499939 0)"/>
      <use xlink:href="#NewCM08-Regular-20" transform="translate(501.499924 0)"/>
      <use xlink:href="#NewCM08-Regular-73" transform="translate(536.899918 0)"/>
      <use xlink:href="#NewCM08-Regular-74" transform="translate(578.799911 0)"/>
      <use xlink:href="#NewCM08-Regular-61" transform="translate(620.099899 0)"/>
      <use xlink:href="#NewCM08-Regular-74" transform="translate(673.19989 0)"/>
      <use xlink:href="#NewCM08-Regular-65" transform="translate(714.499878 0)"/>
      <use xlink:href="#NewCM08-Regular-73" transform="translate(761.699875 0)"/>
     </g>
    </g>
    <g id="patch_26">
     <path d="M 16.2 37.640625 
L 36.2 37.640625 
L 36.2 30.640625 
L 16.2 30.640625 
L 16.2 37.640625 
z
" style="fill: none; stroke: #d4600a; stroke-width: 1.6; stroke-linejoin: miter"/>
    </g>
    <g id="text_3">
     <!-- Checked states (every 4th) -->
     <g transform="translate(44.2 37.640625) scale(0.1 -0.1)">
      <defs>
       <path id="NewCM08-Regular-43" d="M 2739 -141 
C 3859 -141 4531 749 4531 1498 
C 4531 1574 4531 1626 4422 1626 
C 4333 1626 4326 1581 4320 1504 
C 4262 608 3552 96 2822 96 
C 2413 96 1101 307 1101 2182 
C 1101 4064 2406 4275 2816 4275 
C 3539 4275 4141 3712 4275 2790 
C 4288 2701 4288 2662 4403 2662 
C 4531 2662 4531 2701 4531 2835 
L 4531 4339 
C 4531 4467 4525 4512 4435 4512 
C 4403 4512 4371 4506 4314 4429 
L 3987 3974 
C 3930 4032 3866 4090 3795 4141 
C 3482 4390 3155 4512 2739 4512 
C 1459 4512 358 3494 358 2189 
C 358 864 1466 -141 2739 -141 
z
" transform="scale(0.015625)"/>
       <path id="NewCM08-Regular-28" d="M 2176 -1600 
C 2227 -1600 2266 -1574 2266 -1517 
C 2266 -1491 2259 -1472 2144 -1363 
C 1299 -570 1088 627 1088 1600 
C 1088 2707 1338 3808 2170 4595 
C 2253 4672 2266 4691 2266 4717 
C 2266 4774 2227 4800 2176 4800 
C 2093 4800 1478 4358 1082 3546 
C 730 2848 653 2138 653 1600 
C 653 1101 723 326 1101 -390 
C 1504 -1178 2093 -1600 2176 -1600 
z
" transform="scale(0.015625)"/>
       <path id="NewCM08-Regular-76" d="M 3002 2368 
C 3091 2451 3226 2522 3469 2528 
L 3469 2758 
C 3290 2746 3091 2733 2938 2739 
L 2330 2758 
L 2330 2528 
C 2586 2522 2650 2381 2650 2272 
C 2650 2214 2637 2182 2611 2125 
L 1939 563 
L 1197 2278 
C 1171 2349 1158 2374 1158 2381 
C 1165 2534 1414 2522 1549 2522 
L 1549 2758 
L 787 2739 
C 602 2733 333 2746 109 2758 
L 109 2522 
C 550 2522 570 2490 653 2304 
L 1632 64 
C 1670 -26 1690 -70 1792 -70 
C 1894 -70 1926 0 1952 64 
L 2842 2112 
C 2880 2208 2925 2298 3002 2368 
z
" transform="scale(0.015625)"/>
       <path id="NewCM08-Regular-72" d="M 2176 2125 
C 2304 2125 2490 2208 2490 2426 
C 2490 2637 2266 2829 1965 2829 
C 1517 2829 1267 2490 1152 2221 
L 1152 2829 
L 166 2758 
L 166 2528 
C 659 2528 698 2483 698 2189 
L 698 499 
C 698 237 646 237 166 237 
L 166 0 
C 742 13 1274 38 1843 0 
L 1843 237 
L 1683 237 
C 1203 237 1184 294 1184 512 
L 1184 1485 
C 1184 2112 1472 2650 1965 2650 
L 1984 2650 
C 1933 2611 1862 2534 1862 2419 
C 1862 2227 2016 2125 2176 2125 
z
" transform="scale(0.015625)"/>
       <path id="NewCM08-Regular-79" d="M 2835 2131 
C 3008 2515 3341 2522 3469 2522 
L 3469 2758 
C 3290 2746 3091 2733 2938 2739 
L 2330 2758 
L 2330 2522 
C 2547 2515 2643 2419 2643 2272 
C 2643 2208 2630 2182 2605 2125 
L 1939 608 
L 1203 2272 
C 1197 2298 1165 2349 1165 2381 
C 1165 2534 1408 2522 1549 2522 
L 1549 2758 
L 787 2739 
C 602 2733 333 2746 109 2758 
L 109 2522 
C 454 2522 570 2522 659 2317 
L 1677 6 
L 1510 -358 
C 1370 -666 1184 -1133 755 -1133 
C 723 -1133 595 -1133 480 -1050 
C 666 -1011 717 -877 717 -774 
C 717 -595 582 -486 416 -486 
C 269 -486 109 -576 109 -781 
C 109 -1075 403 -1312 755 -1312 
C 1197 -1312 1478 -941 1638 -576 
L 2835 2131 
z
" transform="scale(0.015625)"/>
       <path id="NewCM08-Regular-34" d="M 2534 1050 
L 3213 1050 
L 3213 1280 
L 2534 1280 
L 2534 4147 
C 2534 4294 2534 4333 2406 4333 
C 2323 4333 2304 4320 2253 4250 
L 166 1267 
L 166 1050 
L 1971 1050 
L 1971 512 
C 1971 294 1958 237 1478 237 
L 1318 237 
L 1318 0 
C 1613 19 1965 19 2253 19 
C 2534 19 2893 19 3194 0 
L 3194 237 
L 3034 237 
C 2554 237 2534 294 2534 512 
L 2534 1050 
z
M 2016 3565 
L 2016 1280 
L 416 1280 
L 2016 3565 
z
" transform="scale(0.015625)"/>
       <path id="NewCM08-Regular-29" d="M 1549 -346 
C 1901 352 1984 1062 1984 1600 
C 1984 2099 1907 2874 1530 3590 
C 1126 4378 538 4800 454 4800 
C 403 4800 365 4768 365 4717 
C 365 4691 378 4672 499 4557 
C 1165 3936 1549 2925 1549 1600 
C 1549 512 1299 -602 461 -1395 
C 378 -1472 365 -1491 365 -1517 
C 365 -1568 403 -1600 454 -1600 
C 538 -1600 1152 -1158 1549 -346 
z
" transform="scale(0.015625)"/>
      </defs>
      <use xlink:href="#NewCM08-Regular-43"/>
      <use xlink:href="#NewCM08-Regular-68" transform="translate(76.699982 0)"/>
      <use xlink:href="#NewCM08-Regular-65" transform="translate(135.699966 0)"/>
      <use xlink:href="#NewCM08-Regular-63" transform="translate(182.899963 0)"/>
      <use xlink:href="#NewCM08-Regular-6b" transform="translate(230.09996 0)"/>
      <use xlink:href="#NewCM08-Regular-65" transform="translate(286.199951 0)"/>
      <use xlink:href="#NewCM08-Regular-64" transform="translate(333.399948 0)"/>
      <use xlink:href="#NewCM08-Regular-20" transform="translate(392.399933 0)"/>
      <use xlink:href="#NewCM08-Regular-73" transform="translate(427.799927 0)"/>
      <use xlink:href="#NewCM08-Regular-74" transform="translate(469.699921 0)"/>
      <use xlink:href="#NewCM08-Regular-61" transform="translate(510.999908 0)"/>
      <use xlink:href="#NewCM08-Regular-74" transform="translate(564.099899 0)"/>
      <use xlink:href="#NewCM08-Regular-65" transform="translate(605.399887 0)"/>
      <use xlink:href="#NewCM08-Regular-73" transform="translate(652.599884 0)"/>
      <use xlink:href="#NewCM08-Regular-20" transform="translate(694.499878 0)"/>
      <use xlink:href="#NewCM08-Regular-28" transform="translate(729.899872 0)"/>
      <use xlink:href="#NewCM08-Regular-65" transform="translate(771.19986 0)"/>
      <use xlink:href="#NewCM08-Regular-76" transform="translate(818.399857 0)"/>
      <use xlink:href="#NewCM08-Regular-65" transform="translate(874.499847 0)"/>
      <use xlink:href="#NewCM08-Regular-72" transform="translate(921.699844 0)"/>
      <use xlink:href="#NewCM08-Regular-79" transform="translate(963.099838 0)"/>
      <use xlink:href="#NewCM08-Regular-20" transform="translate(1019.199829 0)"/>
      <use xlink:href="#NewCM08-Regular-34" transform="translate(1054.599823 0)"/>
      <use xlink:href="#NewCM08-Regular-74" transform="translate(1107.699814 0)"/>
      <use xlink:href="#NewCM08-Regular-68" transform="translate(1148.999802 0)"/>
      <use xlink:href="#NewCM08-Regular-29" transform="translate(1207.999786 0)"/>
     </g>
    </g>
   </g>
  </g>
 </g>
 <defs>
  <clipPath id="pf5f30e52e3">
   <rect x="7.2" y="7.2" width="461.196567" height="300.24"/>
  </clipPath>
 </defs>
</svg>
