<?xml version="1.0" encoding="utf-8" standalone="no"?>
<!DOCTYPE svg PUBLIC "-//W3C//DTD SVG 1.1//EN"
  "http://www.w3.org/Graphics/SVG/1.1/DTD/svg11.dtd">
<svg xmlns:xlink="http://www.w3.org/1999/xlink" width="699.84pt" height="288.175256pt" viewBox="0 0 699.84 288.175256" xmlns="http://www.w3.org/2000/svg" version="1.1">
 <metadata>
  <rdf:RDF xmlns:dc="http://purl.org/dc/elements/1.1/" xmlns:cc="http://creativecommons.org/ns#" xmlns:rdf="http://www.w3.org/1999/02/22-rdf-syntax-ns#">
   <cc:Work>
    <dc:type rdf:resource="http://purl.org/dc/dcmitype/StillImage"/>
    <dc:date>2026-04-26T00:12:52.940655</dc:date>
    <dc:format>image/svg+xml</dc:format>
    <dc:creator>
     <cc:Agent>
      <dc:title>Matplotlib v3.10.9, https://matplotlib.org/</dc:title>
     </cc:Agent>
    </dc:creator>
   </cc:Work>
  </rdf:RDF>
 </metadata>
 <defs>
  <style type="text/css">*{stroke-linejoin: round; stroke-linecap: butt}</style>
 </defs>
 <g id="figure_1">
  <g id="patch_1">
   <path d="M 0 288.175256 
L 699.84 288.175256 
L 699.84 0 
L 0 0 
z
" style="fill: #ffffff"/>
  </g>
  <g id="axes_1">
   <g id="patch_2">
    <path d="M 274.625702 130.73811 
L 243.199204 76.305819 
L 85.950363 167.09348 
L 117.376861 221.525771 
z
" clip-path="url(#pbfaa4f1a72)" style="fill: #2a5caa; opacity: 0.4; stroke: #1a3c7a; stroke-width: 1.2; stroke-linejoin: miter"/>
   </g>
   <g id="line2d_1">
    <path d="M 174.24 152.407628 
L 179.363629 149.649441 
L 184.642264 147.200938 
L 190.057209 145.070789 
L 195.589284 143.266541 
L 201.218894 141.794584 
L 206.926099 140.660132 
L 212.690682 139.867203 
L 218.492227 139.418606 
L 224.310184 139.315929 
" clip-path="url(#pbfaa4f1a72)" style="fill: none; stroke: #2a5caa; stroke-opacity: 0.85; stroke-width: 1.4; stroke-linecap: square"/>
   </g>
   <g id="line2d_2">
    <defs>
     <path id="m2fae2a9aa8" d="M 0 2 
C 0.530406 2 1.03916 1.789267 1.414214 1.414214 
C 1.789267 1.03916 2 0.530406 2 0 
C 2 -0.530406 1.789267 -1.03916 1.414214 -1.414214 
C 1.03916 -1.789267 0.530406 -2 0 -2 
C -0.530406 -2 -1.03916 -1.789267 -1.414214 -1.414214 
C -1.789267 -1.03916 -2 -0.530406 -2 0 
C -2 0.530406 -1.789267 1.03916 -1.414214 1.414214 
C -1.03916 1.789267 -0.530406 2 0 2 
z
" style="stroke: #2a5caa"/>
    </defs>
    <g clip-path="url(#pbfaa4f1a72)">
     <use xlink:href="#m2fae2a9aa8" x="224.310184" y="139.315929" style="fill: #2a5caa; stroke: #2a5caa"/>
    </g>
   </g>
   <g id="line2d_3">
    <path d="M 174.24 152.407628 
L 179.315387 149.560191 
L 184.459429 146.838743 
L 189.669 144.244939 
L 194.940932 141.780355 
L 200.272022 139.44649 
L 205.659029 137.244762 
L 211.098677 135.176509 
L 216.587661 133.242989 
L 222.122644 131.445377 
L 227.700262 129.784765 
L 233.317123 128.262164 
L 238.969814 126.878498 
L 244.654899 125.634609 
L 250.368921 124.531253 
L 256.108408 123.5691 
L 261.86987 122.748736 
L 267.649806 122.070659 
L 273.444702 121.535281 
L 279.251035 121.142928 
L 285.065277 120.893838 
L 290.883891 120.788162 
L 296.703343 120.825966 
" clip-path="url(#pbfaa4f1a72)" style="fill: none; stroke: #2a5caa; stroke-opacity: 0.85; stroke-width: 1.4; stroke-linecap: square"/>
   </g>
   <g id="line2d_4">
    <g clip-path="url(#pbfaa4f1a72)">
     <use xlink:href="#m2fae2a9aa8" x="296.703343" y="120.825966" style="fill: #2a5caa; stroke: #2a5caa"/>
    </g>
   </g>
   <g id="line2d_5">
    <path d="M 174.24 152.407628 
L 179.280027 149.497767 
L 184.320054 146.587906 
L 189.360081 143.678045 
" clip-path="url(#pbfaa4f1a72)" style="fill: none; stroke: #2a5caa; stroke-opacity: 0.85; stroke-width: 1.4; stroke-linecap: square"/>
   </g>
   <g id="line2d_6">
    <g clip-path="url(#pbfaa4f1a72)">
     <use xlink:href="#m2fae2a9aa8" x="189.360081" y="143.678045" style="fill: #2a5caa; stroke: #2a5caa"/>
    </g>
   </g>
   <g id="line2d_7">
    <path d="M 174.24 152.407628 
L 179.243646 149.435932 
L 184.17251 146.341785 
L 189.023595 143.127066 
L 193.793954 139.793731 
L 198.480686 136.343804 
L 203.080941 132.779384 
L 207.591925 129.102636 
L 212.010895 125.315797 
L 216.335164 121.421167 
L 220.562105 117.421114 
L 224.689147 113.31807 
L 228.713782 109.114529 
L 232.633564 104.813046 
L 236.44611 100.416236 
L 240.149102 95.926771 
L 243.740289 91.34738 
L 247.217489 86.680847 
L 250.578588 81.930009 
L 253.821542 77.097754 
L 256.944381 72.187018 
L 259.945206 67.200787 
L 262.822193 62.142093 
" clip-path="url(#pbfaa4f1a72)" style="fill: none; stroke: #2a5caa; stroke-opacity: 0.85; stroke-width: 1.4; stroke-linecap: square"/>
   </g>
   <g id="line2d_8">
    <g clip-path="url(#pbfaa4f1a72)">
     <use xlink:href="#m2fae2a9aa8" x="262.822193" y="62.142093" style="fill: #2a5caa; stroke: #2a5caa"/>
    </g>
   </g>
   <g id="line2d_9">
    <path d="M 174.24 152.407628 
L 179.190474 149.349528 
L 183.950258 146.002348 
L 188.502493 142.377942 
L 192.831055 138.489149 
L 196.920612 134.349742 
L 200.756679 129.974384 
L 204.325667 125.378572 
L 207.614937 120.578586 
L 210.612836 115.591426 
" clip-path="url(#pbfaa4f1a72)" style="fill: none; stroke: #2a5caa; stroke-opacity: 0.85; stroke-width: 1.4; stroke-linecap: square"/>
   </g>
   <g id="line2d_10">
    <g clip-path="url(#pbfaa4f1a72)">
     <use xlink:href="#m2fae2a9aa8" x="210.612836" y="115.591426" style="fill: #2a5caa; stroke: #2a5caa"/>
    </g>
   </g>
   <g id="line2d_11">
    <path d="M 174.24 152.407628 
L 169.289526 155.465727 
L 164.529742 158.812908 
L 159.977507 162.437314 
L 155.648945 166.326107 
L 151.559388 170.465514 
L 147.723321 174.840872 
L 144.154333 179.436683 
L 140.865063 184.23667 
L 137.867164 189.22383 
" clip-path="url(#pbfaa4f1a72)" style="fill: none; stroke: #d4600a; stroke-opacity: 0.85; stroke-width: 1.4; stroke-linecap: square"/>
   </g>
   <g id="line2d_12">
    <defs>
     <path id="m3487111d98" d="M 0 2 
C 0.530406 2 1.03916 1.789267 1.414214 1.414214 
C 1.789267 1.03916 2 0.530406 2 0 
C 2 -0.530406 1.789267 -1.03916 1.414214 -1.414214 
C 1.03916 -1.789267 0.530406 -2 0 -2 
C -0.530406 -2 -1.03916 -1.789267 -1.414214 -1.414214 
C -1.789267 -1.03916 -2 -0.530406 -2 0 
C -2 0.530406 -1.789267 1.03916 -1.414214 1.414214 
C -1.03916 1.789267 -0.530406 2 0 2 
z
" style="stroke: #d4600a"/>
    </defs>
    <g clip-path="url(#pbfaa4f1a72)">
     <use xlink:href="#m3487111d98" x="137.867164" y="189.22383" style="fill: #d4600a; stroke: #d4600a"/>
    </g>
   </g>
   <g id="line2d_13">
    <path d="M 174.24 152.407628 
L 169.236354 155.379323 
L 164.30749 158.473471 
L 159.456405 161.688189 
L 154.686046 165.021525 
L 149.999314 168.471451 
L 145.399059 172.035872 
L 140.888075 175.712619 
L 136.469105 179.499459 
L 132.144836 183.394089 
L 127.917895 187.394141 
L 123.790853 191.497185 
L 119.766218 195.700726 
L 115.846436 200.002209 
L 112.03389 204.39902 
L 108.330898 208.888485 
L 104.739711 213.467876 
L 101.262511 218.134408 
L 97.901412 222.885246 
L 94.658458 227.717502 
L 91.535619 232.628238 
L 88.534794 237.614468 
L 85.657807 242.673163 
" clip-path="url(#pbfaa4f1a72)" style="fill: none; stroke: #d4600a; stroke-opacity: 0.85; stroke-width: 1.4; stroke-linecap: square"/>
   </g>
   <g id="line2d_14">
    <g clip-path="url(#pbfaa4f1a72)">
     <use xlink:href="#m3487111d98" x="85.657807" y="242.673163" style="fill: #d4600a; stroke: #d4600a"/>
    </g>
   </g>
   <g id="line2d_15">
    <path d="M 174.24 152.407628 
L 169.199973 155.317489 
L 164.159946 158.22735 
L 159.119919 161.137211 
" clip-path="url(#pbfaa4f1a72)" style="fill: none; stroke: #d4600a; stroke-opacity: 0.85; stroke-width: 1.4; stroke-linecap: square"/>
   </g>
   <g id="line2d_16">
    <g clip-path="url(#pbfaa4f1a72)">
     <use xlink:href="#m3487111d98" x="159.119919" y="161.137211" style="fill: #d4600a; stroke: #d4600a"/>
    </g>
   </g>
   <g id="line2d_17">
    <path d="M 174.24 152.407628 
L 169.164613 155.255065 
L 164.020571 157.976512 
L 158.811 160.570316 
L 153.539068 163.0349 
L 148.207978 165.368765 
L 142.820971 167.570494 
L 137.381323 169.638747 
L 131.892339 171.572267 
L 126.357356 173.369879 
L 120.779738 175.030491 
L 115.162877 176.553092 
L 109.510186 177.936758 
L 103.825101 179.180647 
L 98.111079 180.284003 
L 92.371592 181.246156 
L 86.61013 182.06652 
L 80.830194 182.744597 
L 75.035298 183.279975 
L 69.228965 183.672328 
L 63.414723 183.921418 
L 57.596109 184.027093 
L 51.776657 183.98929 
" clip-path="url(#pbfaa4f1a72)" style="fill: none; stroke: #d4600a; stroke-opacity: 0.85; stroke-width: 1.4; stroke-linecap: square"/>
   </g>
   <g id="line2d_18">
    <g clip-path="url(#pbfaa4f1a72)">
     <use xlink:href="#m3487111d98" x="51.776657" y="183.98929" style="fill: #d4600a; stroke: #d4600a"/>
    </g>
   </g>
   <g id="line2d_19">
    <path d="M 174.24 152.407628 
L 169.116371 155.165814 
L 163.837736 157.614318 
L 158.422791 159.744466 
L 152.890716 161.548714 
L 147.261106 163.020671 
L 141.553901 164.155123 
L 135.789318 164.948052 
L 129.987773 165.39665 
L 124.169816 165.499326 
" clip-path="url(#pbfaa4f1a72)" style="fill: none; stroke: #d4600a; stroke-opacity: 0.85; stroke-width: 1.4; stroke-linecap: square"/>
   </g>
   <g id="line2d_20">
    <g clip-path="url(#pbfaa4f1a72)">
     <use xlink:href="#m3487111d98" x="124.169816" y="165.499326" style="fill: #d4600a; stroke: #d4600a"/>
    </g>
   </g>
   <g id="line2d_21">
    <defs>
     <path id="m278dd26081" d="M -4 0 
L 4 0 
M 0 4 
L 0 -4 
" style="stroke: #000000; stroke-width: 1.2"/>
    </defs>
    <g clip-path="url(#pbfaa4f1a72)">
     <use xlink:href="#m278dd26081" x="174.24" y="152.407628" style="stroke: #000000; stroke-width: 1.2"/>
    </g>
   </g>
   <g id="text_1">
    <!-- All primitives -->
    <g transform="translate(132.177656 23.285438) scale(0.14 -0.14)">
     <defs>
      <path id="NewCM10-Regular-41" d="M 4595 198 
C 4147 198 4026 211 3955 397 
L 2528 4512 
C 2502 4570 2432 4582 2394 4582 
C 2362 4582 2285 4563 2266 4512 
L 883 544 
C 768 320 570 211 256 198 
L 205 198 
L 205 0 
C 205 0 525 19 794 19 
C 1056 19 1434 6 1594 0 
L 1594 198 
C 1254 198 1114 371 1114 531 
C 1114 589 1114 589 1421 1459 
L 3002 1459 
C 3117 1107 3360 448 3360 384 
C 3360 224 3091 198 2886 198 
L 2829 198 
L 2829 0 
C 3046 13 3411 19 3731 19 
C 4051 19 4403 0 4595 0 
L 4595 198 
z
M 2931 1658 
L 1491 1658 
C 1734 2349 1971 3046 2208 3738 
L 2214 3725 
C 2214 3693 2253 3635 2931 1658 
z
" transform="scale(0.015625)"/>
      <path id="NewCM10-Regular-6c" d="M 1133 493 
C 1133 211 1178 198 1632 198 
L 1632 0 
C 1472 0 1171 19 915 19 
C 659 19 371 0 211 0 
L 211 198 
C 640 198 710 218 710 454 
L 710 3859 
C 710 4160 570 4173 211 4173 
L 211 4371 
L 1133 4442 
L 1133 493 
z
" transform="scale(0.015625)"/>
      <path id="NewCM10-Regular-20" transform="scale(0.015625)"/>
      <path id="NewCM10-Regular-70" d="M 179 2560 
C 627 2560 678 2528 678 2227 
L 678 -781 
C 678 -1037 595 -1043 179 -1043 
L 179 -1242 
C 326 -1242 806 -1222 896 -1222 
C 1011 -1222 1504 -1242 1619 -1242 
L 1619 -1043 
C 1190 -1043 1120 -1043 1120 -749 
L 1120 378 
C 1216 147 1549 -70 1901 -70 
C 2630 -70 3334 499 3334 1414 
C 3334 2163 2733 2829 2003 2829 
C 1754 2829 1434 2778 1101 2406 
L 1101 2829 
L 179 2758 
L 179 2560 
z
M 1120 653 
L 1120 2150 
C 1274 2432 1562 2662 1952 2662 
C 2349 2662 2797 2221 2797 1376 
C 2797 493 2272 70 1888 70 
C 1382 70 1146 531 1120 653 
z
" transform="scale(0.015625)"/>
      <path id="NewCM10-Regular-72" d="M 678 474 
C 678 211 614 198 179 198 
L 179 0 
C 346 0 634 19 915 19 
C 1197 19 1594 0 1722 0 
L 1722 198 
C 1101 198 1101 230 1101 557 
L 1101 1011 
C 1101 1549 1101 1613 1107 1664 
C 1203 2598 1696 2688 1843 2688 
C 1875 2688 1894 2688 1926 2682 
C 1837 2630 1779 2554 1779 2426 
C 1779 2253 1914 2157 2054 2157 
C 2157 2157 2330 2221 2330 2438 
C 2330 2656 2118 2829 1856 2829 
C 1446 2829 1190 2496 1069 2125 
L 1069 2829 
L 179 2758 
L 179 2560 
L 262 2560 
C 576 2541 646 2522 672 2310 
C 678 2278 678 1971 678 1318 
L 678 474 
z
" transform="scale(0.015625)"/>
      <path id="NewCM10-Regular-69" d="M 211 0 
L 211 198 
C 602 198 710 198 710 435 
L 710 2234 
C 710 2515 640 2560 237 2560 
L 237 2758 
L 1133 2829 
L 1133 435 
C 1133 198 1229 198 1581 198 
L 1581 0 
C 1434 0 1158 19 909 19 
C 685 19 365 0 211 0 
z
M 826 3603 
C 1024 3603 1158 3744 1158 3942 
C 1158 4160 986 4275 819 4275 
C 653 4275 486 4166 486 3942 
C 486 3782 582 3603 826 3603 
z
" transform="scale(0.015625)"/>
      <path id="NewCM10-Regular-6d" d="M 2483 1965 
L 2483 474 
C 2483 230 2413 198 2086 198 
L 1984 198 
L 1984 0 
C 2067 0 2560 19 2701 19 
C 2886 19 3270 0 3424 0 
L 3424 198 
L 3315 198 
C 2995 198 2925 230 2925 467 
L 2925 1670 
C 2925 2291 3347 2688 3789 2688 
C 4096 2688 4262 2477 4262 2003 
L 4262 480 
C 4262 224 4192 198 3866 198 
L 3763 198 
L 3763 0 
C 3846 0 4294 19 4410 19 
C 4691 19 5056 0 5203 0 
L 5203 198 
C 4877 198 4704 198 4704 397 
L 4704 1946 
C 4704 2605 4365 2829 3840 2829 
C 3392 2829 3091 2579 2906 2208 
C 2842 2624 2534 2829 2067 2829 
C 1587 2829 1293 2560 1107 2163 
L 1107 2829 
L 205 2758 
L 205 2560 
C 666 2560 704 2502 704 2214 
L 704 442 
C 704 218 602 198 307 198 
L 205 198 
L 205 0 
C 358 0 736 19 858 19 
C 1133 19 1491 0 1645 0 
L 1645 198 
C 1222 198 1146 198 1146 486 
L 1146 1677 
C 1146 2285 1562 2688 2010 2688 
C 2330 2688 2483 2483 2483 1965 
z
" transform="scale(0.015625)"/>
      <path id="NewCM10-Regular-74" d="M 1965 781 
L 1965 1158 
L 2125 1158 
L 2125 781 
C 2125 307 1920 -70 1402 -70 
C 826 -70 666 403 666 819 
L 666 2560 
L 122 2560 
L 122 2701 
C 685 2720 941 3309 947 3936 
L 1107 3936 
L 1107 2765 
L 2022 2765 
L 2022 2560 
L 1107 2560 
L 1107 749 
C 1107 416 1222 90 1517 90 
C 1837 90 1965 454 1965 781 
z
" transform="scale(0.015625)"/>
      <path id="NewCM10-Regular-76" d="M 1094 2330 
C 1030 2483 1152 2560 1440 2560 
L 1440 2758 
C 1274 2758 877 2739 704 2739 
C 589 2739 282 2746 122 2758 
L 122 2560 
L 160 2560 
C 448 2560 544 2528 608 2381 
L 1568 19 
C 1581 -32 1606 -70 1683 -70 
C 1741 -70 1779 -58 1811 19 
L 2675 2163 
C 2733 2317 2874 2560 3251 2560 
L 3251 2758 
C 3130 2746 2963 2739 2771 2739 
C 2675 2739 2272 2758 2214 2758 
L 2214 2560 
C 2464 2560 2566 2355 2496 2163 
L 1830 499 
L 1094 2330 
z
" transform="scale(0.015625)"/>
      <path id="NewCM10-Regular-65" d="M 2483 736 
C 2278 147 1779 90 1626 90 
C 1402 90 1248 173 1107 288 
C 838 512 710 864 710 1382 
L 710 1478 
L 2541 1478 
C 2643 1478 2656 1498 2656 1606 
C 2656 2342 2240 2867 1510 2867 
C 730 2867 179 2182 179 1408 
C 179 525 864 -70 1600 -70 
C 2355 -70 2656 627 2656 762 
C 2656 800 2637 838 2579 838 
C 2534 838 2509 813 2483 736 
z
M 1504 2726 
C 2150 2726 2234 1894 2234 1638 
L 2234 1619 
L 717 1619 
L 717 1664 
C 768 2509 1248 2726 1504 2726 
z
" transform="scale(0.015625)"/>
      <path id="NewCM10-Regular-73" d="M 2144 2765 
L 2144 2029 
C 2144 1939 2131 1914 2067 1914 
C 1990 1914 1978 1952 1978 2022 
C 1978 2118 1946 2746 1248 2746 
C 723 2746 518 2515 518 2266 
C 518 2003 736 1882 928 1824 
C 1222 1728 1382 1741 1670 1645 
C 2074 1504 2304 1184 2304 826 
C 2304 397 2061 -70 1267 -70 
C 960 -70 742 32 570 205 
C 365 -32 326 -77 262 -77 
C 230 -77 211 -51 211 64 
L 211 954 
C 211 1062 230 1088 294 1088 
C 346 1088 358 1069 378 1005 
C 429 774 499 570 582 435 
C 794 109 1088 70 1274 70 
C 1702 70 1997 269 1997 653 
C 1997 947 1786 1107 1510 1197 
C 1331 1248 883 1293 614 1446 
C 403 1568 211 1779 211 2074 
C 211 2413 422 2867 1242 2867 
C 1517 2867 1690 2790 1837 2688 
C 2003 2848 2022 2867 2074 2867 
C 2112 2867 2144 2861 2144 2765 
z
" transform="scale(0.015625)"/>
     </defs>
     <use xlink:href="#NewCM10-Regular-41"/>
     <use xlink:href="#NewCM10-Regular-6c" transform="translate(74.999985 0)"/>
     <use xlink:href="#NewCM10-Regular-6c" transform="translate(102.799973 0)"/>
     <use xlink:href="#NewCM10-Regular-20" transform="translate(130.59996 0)"/>
     <use xlink:href="#NewCM10-Regular-70" transform="translate(163.899948 0)"/>
     <use xlink:href="#NewCM10-Regular-72" transform="translate(219.499939 0)"/>
     <use xlink:href="#NewCM10-Regular-69" transform="translate(258.699936 0)"/>
     <use xlink:href="#NewCM10-Regular-6d" transform="translate(286.499924 0)"/>
     <use xlink:href="#NewCM10-Regular-69" transform="translate(369.799911 0)"/>
     <use xlink:href="#NewCM10-Regular-74" transform="translate(397.599899 0)"/>
     <use xlink:href="#NewCM10-Regular-69" transform="translate(436.499893 0)"/>
     <use xlink:href="#NewCM10-Regular-76" transform="translate(464.299881 0)"/>
     <use xlink:href="#NewCM10-Regular-65" transform="translate(517.099869 0)"/>
     <use xlink:href="#NewCM10-Regular-73" transform="translate(561.499863 0)"/>
    </g>
   </g>
   <g id="legend_1">
    <g id="patch_3">
     <path d="M 14.9 68.754813 
L 93.44 68.754813 
Q 95.64 68.754813 95.64 66.554813 
L 95.64 36.985438 
Q 95.64 34.785438 93.44 34.785438 
L 14.9 34.785438 
Q 12.7 34.785438 12.7 36.985438 
L 12.7 66.554813 
Q 12.7 68.754813 14.9 68.754813 
z
" style="fill: #ffffff; opacity: 0.8; stroke: #cccccc; stroke-linejoin: miter"/>
    </g>
    <g id="patch_4">
     <path d="M 17.1 46.885438 
L 39.1 46.885438 
L 39.1 39.185438 
L 17.1 39.185438 
z
" style="fill: #2a5caa"/>
    </g>
    <g id="text_2">
     <!-- Forward -->
     <g transform="translate(47.9 46.885438) scale(0.11 -0.11)">
      <defs>
       <path id="NewCM08-Regular-46" d="M 3949 2886 
L 4160 2886 
L 3968 4352 
L 205 4352 
L 205 4115 
L 384 4115 
C 883 4115 902 4058 902 3840 
L 902 512 
C 902 294 883 237 384 237 
L 205 237 
L 205 0 
C 461 19 992 19 1254 19 
C 1530 19 2150 19 2413 0 
L 2413 237 
L 2170 237 
C 1549 237 1549 307 1549 518 
L 1549 2061 
L 2112 2061 
C 2746 2061 2810 1875 2810 1318 
L 3021 1318 
L 3021 3040 
L 2810 3040 
C 2810 2490 2746 2298 2112 2298 
L 1549 2298 
L 1549 3885 
C 1549 4077 1549 4115 1856 4115 
L 2675 4115 
C 3674 4115 3840 3776 3949 2886 
z
" transform="scale(0.015625)"/>
       <path id="NewCM08-Regular-6f" d="M 1690 -70 
C 2522 -70 3213 557 3213 1370 
C 3213 2189 2528 2867 1696 2867 
C 838 2867 166 2170 166 1370 
C 166 544 883 -70 1690 -70 
z
M 2438 2291 
C 2611 2022 2611 1664 2611 1421 
C 2611 1190 2611 858 2464 582 
C 2317 307 2029 128 1696 128 
C 1408 128 1120 256 941 538 
C 781 794 774 1133 774 1421 
C 774 1709 774 2016 934 2278 
C 1107 2560 1427 2688 1690 2688 
C 1978 2688 2266 2554 2438 2291 
z
" transform="scale(0.015625)"/>
       <path id="NewCM08-Regular-72" d="M 2176 2125 
C 2304 2125 2490 2208 2490 2426 
C 2490 2637 2266 2829 1965 2829 
C 1517 2829 1267 2490 1152 2221 
L 1152 2829 
L 166 2758 
L 166 2528 
C 659 2528 698 2483 698 2189 
L 698 499 
C 698 237 646 237 166 237 
L 166 0 
C 742 13 1274 38 1843 0 
L 1843 237 
L 1683 237 
C 1203 237 1184 294 1184 512 
L 1184 1485 
C 1184 2112 1472 2650 1965 2650 
L 1984 2650 
C 1933 2611 1862 2534 1862 2419 
C 1862 2227 2016 2125 2176 2125 
z
" transform="scale(0.015625)"/>
       <path id="NewCM08-Regular-77" d="M 4218 2131 
C 4339 2438 4538 2522 4787 2528 
L 4787 2758 
C 4621 2746 4422 2733 4275 2739 
L 3622 2758 
L 3622 2528 
C 3878 2522 4019 2413 4019 2240 
C 4019 2208 4013 2195 3981 2112 
L 3386 550 
L 2733 2259 
C 2720 2298 2701 2336 2701 2374 
C 2701 2534 2950 2522 3098 2522 
L 3098 2758 
L 2374 2739 
C 2170 2733 1978 2746 1747 2758 
L 1747 2522 
C 2022 2522 2118 2509 2182 2438 
C 2214 2400 2285 2221 2330 2099 
L 1773 627 
L 1146 2266 
C 1133 2298 1114 2342 1114 2374 
C 1114 2534 1363 2522 1510 2522 
L 1510 2758 
L 755 2739 
L 102 2758 
L 102 2522 
C 461 2522 531 2509 608 2317 
L 1459 83 
C 1498 -19 1523 -70 1619 -70 
C 1728 -70 1747 -6 1779 70 
L 2445 1805 
L 3117 64 
C 3142 -6 3168 -70 3270 -70 
C 3373 -70 3398 0 3424 64 
L 4218 2131 
z
" transform="scale(0.015625)"/>
       <path id="NewCM08-Regular-61" d="M 2720 -38 
C 2867 -38 3296 51 3296 582 
L 3296 954 
L 3085 954 
L 3085 582 
C 3085 224 2925 192 2861 192 
C 2656 192 2630 461 2630 493 
L 2630 1754 
C 2630 2048 2624 2285 2381 2515 
C 2112 2765 1766 2867 1440 2867 
C 877 2867 390 2566 390 2131 
C 390 1933 538 1818 723 1818 
C 928 1818 1056 1952 1056 2131 
C 1056 2202 1024 2413 736 2438 
C 915 2630 1222 2688 1427 2688 
C 1747 2688 2125 2451 2125 1901 
L 2125 1683 
C 1696 1664 1280 1626 890 1459 
C 371 1235 198 902 198 621 
C 198 90 877 -70 1306 -70 
C 1728 -70 2035 154 2182 429 
C 2234 192 2413 -38 2720 -38 
z
M 2125 1517 
L 2125 902 
C 2125 314 1645 109 1350 109 
C 1024 109 762 320 762 627 
C 762 960 1030 1472 2125 1517 
z
" transform="scale(0.015625)"/>
       <path id="NewCM08-Regular-64" d="M 2560 -70 
L 3597 0 
L 3597 237 
C 3104 237 3066 275 3066 570 
L 3066 4442 
L 2048 4371 
L 2048 4134 
C 2541 4134 2579 4096 2579 3802 
L 2579 2483 
C 2381 2694 2093 2842 1741 2842 
C 934 2842 211 2214 211 1382 
C 211 570 883 -70 1670 -70 
C 2080 -70 2381 122 2560 314 
L 2560 -70 
z
M 2560 2067 
L 2560 768 
C 2560 659 2560 646 2483 544 
C 2285 243 1984 109 1702 109 
C 1408 109 1171 269 1005 506 
C 832 762 813 1114 813 1376 
C 813 1613 826 1990 1024 2266 
C 1158 2464 1414 2662 1773 2662 
C 2003 2662 2285 2573 2490 2291 
C 2560 2189 2560 2182 2560 2067 
z
" transform="scale(0.015625)"/>
      </defs>
      <use xlink:href="#NewCM08-Regular-46"/>
      <use xlink:href="#NewCM08-Regular-6f" transform="translate(69.299988 0)"/>
      <use xlink:href="#NewCM08-Regular-72" transform="translate(122.399979 0)"/>
      <use xlink:href="#NewCM08-Regular-77" transform="translate(163.799973 0)"/>
      <use xlink:href="#NewCM08-Regular-61" transform="translate(240.499954 0)"/>
      <use xlink:href="#NewCM08-Regular-72" transform="translate(293.599945 0)"/>
      <use xlink:href="#NewCM08-Regular-64" transform="translate(334.999939 0)"/>
     </g>
    </g>
    <g id="patch_5">
     <path d="M 17.1 62.220125 
L 39.1 62.220125 
L 39.1 54.520125 
L 17.1 54.520125 
z
" style="fill: #d4600a"/>
    </g>
    <g id="text_3">
     <!-- Reverse -->
     <g transform="translate(47.9 62.220125) scale(0.11 -0.11)">
      <defs>
       <path id="NewCM08-Regular-52" d="M 4320 -141 
C 4870 -141 4986 397 4986 576 
C 4986 621 4986 704 4877 704 
C 4794 704 4781 646 4774 582 
C 4736 141 4506 38 4346 38 
C 4192 38 4102 109 4038 262 
C 4006 339 3981 429 3962 544 
C 3936 659 3910 787 3885 934 
L 3802 1446 
C 3680 1837 3373 2048 3021 2170 
C 3648 2336 4160 2720 4160 3213 
C 4160 3834 3366 4371 2368 4371 
L 218 4371 
L 218 4134 
L 403 4134 
C 902 4134 915 4077 915 3859 
L 915 512 
C 915 294 902 237 403 237 
L 218 237 
L 218 0 
C 480 19 966 19 1229 19 
C 1491 19 1971 19 2240 0 
L 2240 237 
L 2054 237 
C 1555 237 1542 294 1542 512 
L 1542 2099 
L 2298 2099 
C 2406 2099 2682 2099 2918 1888 
C 3168 1664 3168 1478 3168 1050 
C 3168 947 3168 858 3174 768 
C 3187 512 3232 314 3456 128 
C 3731 -109 4115 -141 4320 -141 
z
M 2067 4134 
C 2682 4134 3418 4109 3418 3213 
C 3418 2778 3264 2278 2272 2278 
L 1542 2278 
L 1542 3904 
C 1542 4051 1542 4102 1670 4122 
C 1741 4134 1933 4134 2067 4134 
z
" transform="scale(0.015625)"/>
       <path id="NewCM08-Regular-65" d="M 1683 -70 
C 2522 -70 2835 640 2835 768 
C 2835 851 2765 864 2726 864 
C 2650 864 2637 813 2618 762 
C 2502 442 2298 282 2112 205 
C 1990 154 1856 128 1722 128 
C 1395 128 1126 307 973 538 
C 781 832 774 1229 774 1459 
L 2643 1459 
C 2803 1459 2835 1459 2835 1613 
C 2835 2240 2464 2867 1600 2867 
C 800 2867 166 2208 166 1408 
C 166 550 890 -70 1683 -70 
z
M 1600 2688 
C 2259 2688 2342 1901 2349 1632 
L 781 1632 
C 826 2541 1382 2688 1600 2688 
z
" transform="scale(0.015625)"/>
       <path id="NewCM08-Regular-76" d="M 3002 2368 
C 3091 2451 3226 2522 3469 2528 
L 3469 2758 
C 3290 2746 3091 2733 2938 2739 
L 2330 2758 
L 2330 2528 
C 2586 2522 2650 2381 2650 2272 
C 2650 2214 2637 2182 2611 2125 
L 1939 563 
L 1197 2278 
C 1171 2349 1158 2374 1158 2381 
C 1165 2534 1414 2522 1549 2522 
L 1549 2758 
L 787 2739 
C 602 2733 333 2746 109 2758 
L 109 2522 
C 550 2522 570 2490 653 2304 
L 1632 64 
C 1670 -26 1690 -70 1792 -70 
C 1894 -70 1926 0 1952 64 
L 2842 2112 
C 2880 2208 2925 2298 3002 2368 
z
" transform="scale(0.015625)"/>
       <path id="NewCM08-Regular-73" d="M 1350 -70 
C 2144 -70 2464 358 2464 826 
C 2464 1171 2253 1363 2170 1440 
C 1946 1645 1670 1696 1389 1747 
C 998 1818 570 1901 570 2246 
C 570 2458 736 2707 1312 2707 
C 1677 2707 1862 2573 1965 2413 
C 2048 2272 2067 2118 2080 1965 
C 2086 1888 2182 1888 2182 1888 
C 2285 1888 2291 1920 2291 2061 
L 2291 2694 
C 2291 2822 2285 2867 2195 2867 
C 2157 2867 2138 2861 2048 2784 
C 2029 2765 1978 2720 1946 2694 
C 1690 2867 1414 2867 1312 2867 
C 474 2867 205 2438 205 2074 
C 205 1843 314 1664 506 1517 
C 723 1350 922 1312 1408 1222 
C 1562 1197 2099 1101 2099 666 
C 2099 352 1869 109 1350 109 
C 794 109 557 454 429 986 
C 410 1069 397 1114 314 1114 
C 211 1114 205 1062 205 934 
L 205 102 
C 205 -26 211 -70 301 -70 
C 365 -70 461 32 493 77 
C 525 115 570 154 602 192 
C 902 -64 1210 -70 1350 -70 
z
" transform="scale(0.015625)"/>
      </defs>
      <use xlink:href="#NewCM08-Regular-52"/>
      <use xlink:href="#NewCM08-Regular-65" transform="translate(78.199982 0)"/>
      <use xlink:href="#NewCM08-Regular-76" transform="translate(125.399979 0)"/>
      <use xlink:href="#NewCM08-Regular-65" transform="translate(181.499969 0)"/>
      <use xlink:href="#NewCM08-Regular-72" transform="translate(228.699966 0)"/>
      <use xlink:href="#NewCM08-Regular-73" transform="translate(270.09996 0)"/>
      <use xlink:href="#NewCM08-Regular-65" transform="translate(311.999954 0)"/>
     </g>
    </g>
   </g>
  </g>
  <g id="axes_2">
   <g id="patch_6">
    <path d="M 648.063343 128.810479 
L 607.267402 58.149836 
L 403.136657 176.004777 
L 443.932598 246.665419 
z
" clip-path="url(#p6c176961e5)" style="fill: #2a5caa; opacity: 0.4; stroke: #1a3c7a; stroke-width: 1.2; stroke-linejoin: miter"/>
   </g>
   <g id="line2d_22">
    <path d="M 517.748817 156.94051 
L 524.29147 153.163108 
L 530.834122 149.385706 
L 537.376774 145.608304 
" clip-path="url(#p6c176961e5)" style="fill: none; stroke: #2a5caa; stroke-opacity: 0.85; stroke-width: 1.4; stroke-linecap: square"/>
   </g>
   <g id="line2d_23">
    <g clip-path="url(#p6c176961e5)">
     <use xlink:href="#m2fae2a9aa8" x="537.376774" y="145.608304" style="fill: #2a5caa; stroke: #2a5caa"/>
    </g>
   </g>
   <g id="line2d_24">
    <path d="M 517.748817 156.94051 
L 511.206165 160.717912 
L 504.663513 164.495314 
L 498.120861 168.272716 
" clip-path="url(#p6c176961e5)" style="fill: none; stroke: #d4600a; stroke-opacity: 0.85; stroke-width: 1.4; stroke-linecap: square"/>
   </g>
   <g id="line2d_25">
    <g clip-path="url(#p6c176961e5)">
     <use xlink:href="#m3487111d98" x="498.120861" y="168.272716" style="fill: #d4600a; stroke: #d4600a"/>
    </g>
   </g>
   <g id="line2d_26">
    <g clip-path="url(#p6c176961e5)">
     <use xlink:href="#m278dd26081" x="517.748817" y="156.94051" style="stroke: #000000; stroke-width: 1.2"/>
    </g>
   </g>
   <g id="text_4">
    <!-- Straight primitives (δ = 0) -->
    <g transform="translate(443.07 17.84) scale(0.14 -0.14)">
     <defs>
      <path id="NewCM10-Regular-53" d="M 358 1331 
L 358 653 
C 358 -64 358 -90 365 -102 
C 378 -128 390 -141 429 -141 
C 454 -141 467 -134 480 -122 
C 486 -115 544 -26 621 90 
L 755 307 
C 1030 32 1414 -141 1933 -141 
C 2656 -141 3194 467 3194 1190 
C 3194 1818 2784 2336 2291 2470 
C 2266 2470 1389 2688 1350 2701 
C 1037 2803 768 3104 768 3501 
C 768 3987 1184 4333 1619 4333 
C 2387 4333 2771 3757 2861 2995 
C 2867 2938 2880 2918 2938 2918 
C 2982 2918 3008 2931 3021 2957 
L 3021 4416 
C 3021 4506 2976 4518 2944 4518 
C 2918 4518 2899 4506 2893 4493 
C 2874 4467 2643 4083 2630 4070 
L 2624 4070 
C 2406 4275 2182 4512 1574 4512 
C 845 4512 358 3878 358 3302 
C 358 2554 851 2208 1203 2099 
C 1318 2054 2138 1875 2234 1830 
C 2515 1722 2778 1408 2778 973 
C 2778 563 2515 64 1926 64 
C 1146 64 576 493 525 1261 
L 518 1376 
C 512 1434 486 1453 435 1453 
C 365 1453 358 1408 358 1331 
z
" transform="scale(0.015625)"/>
      <path id="NewCM10-Regular-61" d="M 2534 1805 
C 2534 2067 2509 2310 2323 2496 
C 2086 2733 1830 2867 1370 2867 
C 998 2867 461 2618 461 2150 
C 461 1952 576 1843 755 1843 
C 934 1843 1050 1958 1050 2144 
C 1050 2298 941 2432 723 2432 
C 877 2624 1165 2726 1395 2726 
C 1741 2726 2093 2451 2093 1933 
L 2093 1670 
C 672 1632 275 1043 275 614 
C 275 77 890 -70 1286 -70 
C 1645 -70 1997 115 2138 486 
C 2144 365 2246 -38 2643 -38 
C 2835 -38 3162 102 3162 563 
L 3162 928 
L 3002 928 
L 3002 563 
C 3002 230 2854 160 2778 160 
C 2650 160 2534 243 2534 602 
L 2534 1805 
z
M 2093 896 
C 2093 333 1677 70 1338 70 
C 986 70 768 339 768 621 
C 768 928 998 1491 2093 1536 
L 2093 896 
z
" transform="scale(0.015625)"/>
      <path id="NewCM10-Regular-67" d="M 2771 2899 
C 2541 2899 2266 2778 2099 2598 
C 1933 2726 1715 2829 1414 2829 
C 787 2829 384 2362 384 1888 
C 384 1613 518 1408 672 1229 
C 563 1069 486 896 486 698 
C 486 352 710 154 768 134 
C 269 -32 179 -314 179 -506 
C 179 -928 736 -1318 1600 -1318 
C 2451 -1318 3014 -941 3014 -493 
C 3014 -243 2925 -45 2778 102 
C 2451 416 1926 422 1427 422 
L 1043 422 
C 845 422 678 621 678 858 
C 678 966 723 1075 787 1146 
C 954 1043 1139 954 1414 954 
C 2003 954 2458 1376 2458 1888 
C 2458 2112 2368 2342 2195 2509 
C 2291 2605 2522 2758 2765 2758 
C 2797 2758 2835 2752 2835 2752 
C 2778 2733 2733 2675 2733 2573 
C 2733 2470 2822 2394 2912 2394 
C 3040 2394 3104 2483 3104 2586 
C 3104 2701 3014 2899 2771 2899 
z
M 1978 1888 
C 1978 1562 1926 1395 1798 1261 
C 1702 1178 1594 1101 1414 1101 
C 934 1101 864 1581 864 1888 
C 864 2214 909 2381 1037 2515 
C 1126 2605 1248 2682 1434 2682 
C 1907 2682 1978 2176 1978 1888 
z
M 2682 -506 
C 2682 -813 2291 -1165 1594 -1165 
C 1018 -1165 512 -896 512 -512 
C 512 -205 736 -13 1005 38 
L 1747 38 
C 2048 38 2682 -13 2682 -506 
z
" transform="scale(0.015625)"/>
      <path id="NewCM10-Regular-68" d="M 2054 2829 
C 2637 2829 2925 2541 2925 1946 
L 2925 416 
C 2925 205 3053 198 3424 198 
L 3424 0 
C 3270 0 2906 19 2630 19 
C 2515 19 2067 0 1984 0 
L 1984 198 
C 1997 198 2003 192 2016 192 
C 2387 192 2483 198 2483 467 
L 2483 1952 
C 2483 2464 2330 2675 2010 2675 
C 1670 2675 1146 2374 1146 1651 
L 1146 493 
C 1146 211 1190 198 1645 198 
L 1645 0 
C 1562 0 1075 19 960 19 
C 678 19 352 0 205 0 
L 205 198 
C 678 198 704 224 704 499 
L 704 3840 
C 704 4128 634 4173 205 4173 
L 205 4371 
L 1126 4442 
L 1126 2214 
L 1133 2214 
C 1414 2803 1894 2829 2054 2829 
z
" transform="scale(0.015625)"/>
      <path id="NewCM10-Regular-28" d="M 1005 1600 
C 1005 2637 1229 3526 1670 4179 
C 1786 4352 1926 4518 2080 4666 
C 2163 4742 2106 4864 1958 4749 
C 1664 4518 1421 4230 1222 3904 
C 838 3270 634 2483 634 1600 
C 634 717 838 -70 1222 -704 
C 1421 -1037 1664 -1318 1958 -1549 
C 2106 -1664 2163 -1549 2080 -1466 
C 1926 -1318 1786 -1158 1670 -979 
C 1229 -326 1005 563 1005 1600 
z
" transform="scale(0.015625)"/>
      <path id="NewCM10-Regular-3b4" d="M 442 4294 
C 358 4186 314 4064 314 3936 
C 314 3565 685 3238 1069 2950 
L 1203 2854 
L 1139 2829 
C 819 2714 557 2451 403 2099 
C 294 1850 269 1651 269 1434 
C 269 1139 320 896 448 653 
C 685 179 1101 -90 1574 -70 
C 1862 -58 2112 51 2330 256 
C 2618 544 2746 896 2746 1293 
C 2746 1754 2586 2118 2253 2451 
C 1920 2784 1670 2822 1184 3098 
C 794 3315 301 3635 512 4096 
C 570 4218 621 4237 755 4237 
C 1101 4237 1715 3910 2298 3584 
C 2406 3526 2496 3475 2502 3475 
L 2502 3802 
L 2317 3904 
C 1754 4211 1453 4352 1165 4429 
C 1043 4461 634 4557 442 4294 
z
M 1549 96 
C 1069 96 787 576 755 1331 
C 710 2483 1254 2714 1382 2714 
C 1389 2714 1421 2688 1466 2650 
C 1677 2483 2086 2074 2246 1453 
C 2266 1389 2285 1306 2285 1261 
C 2291 1203 2298 1120 2298 1043 
C 2298 518 1978 96 1549 96 
z
" transform="scale(0.015625)"/>
      <path id="NewCM10-Regular-3d" d="M 352 2227 
C 352 2163 397 2131 448 2099 
L 2483 2099 
C 4486 2099 4518 2099 4538 2106 
C 4563 2118 4602 2150 4614 2182 
L 4614 2272 
C 4589 2310 4557 2336 4512 2355 
L 461 2355 
C 390 2330 352 2291 352 2227 
z
M 352 986 
C 352 922 397 877 461 858 
L 4512 858 
C 4557 877 4589 902 4614 941 
L 4614 1030 
C 4602 1062 4570 1088 4538 1107 
C 4525 1114 4506 1114 2490 1114 
L 454 1114 
C 397 1088 352 1056 352 986 
z
" transform="scale(0.015625)"/>
      <path id="NewCM10-Regular-30" d="M 781 2074 
C 781 3104 794 4122 1600 4122 
C 2406 4122 2413 3104 2413 2074 
C 2413 1043 2406 6 1600 6 
C 794 6 781 1043 781 2074 
z
M 250 2074 
C 250 1120 448 -141 1600 -141 
C 2752 -141 2950 1120 2950 2074 
C 2950 3027 2752 4262 1600 4262 
C 448 4262 250 3027 250 2074 
z
" transform="scale(0.015625)"/>
      <path id="NewCM10-Regular-29" d="M 1472 1600 
C 1472 2637 1248 3526 806 4179 
C 685 4358 550 4518 397 4666 
C 314 4749 371 4864 518 4749 
C 813 4518 1056 4230 1254 3904 
C 1638 3270 1843 2483 1843 1600 
C 1843 717 1638 -70 1254 -704 
C 1056 -1030 813 -1318 518 -1549 
C 371 -1664 314 -1549 397 -1466 
C 550 -1318 685 -1158 806 -979 
C 1248 -326 1472 563 1472 1600 
z
" transform="scale(0.015625)"/>
     </defs>
     <use xlink:href="#NewCM10-Regular-53"/>
     <use xlink:href="#NewCM10-Regular-74" transform="translate(55.599991 0)"/>
     <use xlink:href="#NewCM10-Regular-72" transform="translate(94.499985 0)"/>
     <use xlink:href="#NewCM10-Regular-61" transform="translate(133.699982 0)"/>
     <use xlink:href="#NewCM10-Regular-69" transform="translate(183.699966 0)"/>
     <use xlink:href="#NewCM10-Regular-67" transform="translate(211.499954 0)"/>
     <use xlink:href="#NewCM10-Regular-68" transform="translate(261.499939 0)"/>
     <use xlink:href="#NewCM10-Regular-74" transform="translate(317.09993 0)"/>
     <use xlink:href="#NewCM10-Regular-20" transform="translate(355.999924 0)"/>
     <use xlink:href="#NewCM10-Regular-70" transform="translate(389.299911 0)"/>
     <use xlink:href="#NewCM10-Regular-72" transform="translate(444.899902 0)"/>
     <use xlink:href="#NewCM10-Regular-69" transform="translate(484.099899 0)"/>
     <use xlink:href="#NewCM10-Regular-6d" transform="translate(511.899887 0)"/>
     <use xlink:href="#NewCM10-Regular-69" transform="translate(595.199875 0)"/>
     <use xlink:href="#NewCM10-Regular-74" transform="translate(622.999863 0)"/>
     <use xlink:href="#NewCM10-Regular-69" transform="translate(661.899857 0)"/>
     <use xlink:href="#NewCM10-Regular-76" transform="translate(689.699844 0)"/>
     <use xlink:href="#NewCM10-Regular-65" transform="translate(742.499832 0)"/>
     <use xlink:href="#NewCM10-Regular-73" transform="translate(786.899826 0)"/>
     <use xlink:href="#NewCM10-Regular-20" transform="translate(826.29982 0)"/>
     <use xlink:href="#NewCM10-Regular-28" transform="translate(859.599808 0)"/>
     <use xlink:href="#NewCM10-Regular-3b4" transform="translate(898.499802 0)"/>
     <use xlink:href="#NewCM10-Regular-20" transform="translate(945.699799 0)"/>
     <use xlink:href="#NewCM10-Regular-3d" transform="translate(978.999786 0)"/>
     <use xlink:href="#NewCM10-Regular-20" transform="translate(1056.799774 0)"/>
     <use xlink:href="#NewCM10-Regular-30" transform="translate(1090.099762 0)"/>
     <use xlink:href="#NewCM10-Regular-29" transform="translate(1140.099747 0)"/>
    </g>
   </g>
  </g>
 </g>
 <defs>
  <clipPath id="pbfaa4f1a72">
   <rect x="7.2" y="29.285438" width="334.08" height="246.24438"/>
  </clipPath>
  <clipPath id="p6c176961e5">
   <rect x="358.56" y="23.84" width="334.08" height="257.135256"/>
  </clipPath>
 </defs>
</svg>
